<svg width="32" height="40" viewBox="0 0 32 40" fill="none" xmlns="http://www.w3.org/2000/svg">
<path d="M32.0001 29.318C31.9501 29.47 31.1791 32.21 29.2831 35.028C27.6421 37.458 25.9451 39.907 23.2651 39.95C20.6291 39.997 19.7851 38.35 16.7771 38.35C13.7711 38.35 12.8271 39.907 10.3361 39.997C7.76114 40.104 5.77914 37.343 4.13214 34.924C0.765138 29.971 -1.82686 20.887 1.65014 14.8C3.36014 11.754 6.43514 9.818 9.78314 9.765C12.3061 9.717 14.7061 11.505 16.2391 11.505C17.8131 11.505 20.7171 9.341 23.7801 9.665C25.0631 9.721 28.6511 10.211 30.9631 13.621C30.7811 13.747 26.6701 16.216 26.7151 21.241C26.7771 27.308 31.9451 29.297 32.0001 29.318ZM21.7761 6.414C23.1571 4.7 24.0651 2.341 23.8261 0C21.8541 0.079 19.4501 1.333 18.0221 3.038C16.7591 4.526 15.6461 6.92 15.9571 9.234C18.1481 9.37 20.4021 8.066 21.7761 6.414Z" fill="white"/>
</svg>
