<svg width="40" height="40" viewBox="0 0 40 40" fill="none" xmlns="http://www.w3.org/2000/svg">
<g clip-path="url(#clip0_62_11)">
<path d="M22.014 13.27V12.939L20.992 13.01C20.702 13.028 20.482 13.09 20.335 13.193C20.2645 13.2416 20.2074 13.3072 20.1691 13.3838C20.1308 13.4604 20.1125 13.5454 20.116 13.631C20.116 13.814 20.188 13.957 20.335 14.064C20.478 14.172 20.675 14.225 20.915 14.225C21.072 14.225 21.215 14.203 21.349 14.154C21.483 14.104 21.599 14.042 21.697 13.957C21.7976 13.8731 21.8783 13.7678 21.9331 13.6488C21.988 13.5298 22.0156 13.4 22.014 13.269V13.27ZM20 0C8.839 0 0 8.839 0 20C0 31.161 8.839 40 20 40C31.161 40 40 31.161 40 20C40 8.839 31.161 0 20 0ZM23.881 11.854C23.975 11.59 24.109 11.362 24.283 11.17C24.457 10.983 24.663 10.835 24.904 10.732C25.162 10.6272 25.4386 10.5759 25.717 10.581C25.985 10.581 26.23 10.621 26.445 10.701C26.664 10.781 26.847 10.889 27.003 11.027C27.159 11.161 27.28 11.322 27.373 11.501C27.463 11.684 27.517 11.876 27.535 12.077H26.731C26.697 11.8595 26.5859 11.6614 26.418 11.519C26.3286 11.4463 26.227 11.3901 26.118 11.353C25.9928 11.3122 25.8617 11.2926 25.73 11.295C25.5719 11.2921 25.4152 11.3261 25.2725 11.3943C25.1298 11.4625 25.005 11.5631 24.908 11.688C24.8035 11.8254 24.7265 11.9815 24.681 12.148C24.627 12.327 24.601 12.528 24.601 12.747C24.601 12.975 24.627 13.18 24.681 13.359C24.734 13.537 24.811 13.689 24.913 13.814C25.0092 13.9368 25.1333 14.0348 25.275 14.1C25.413 14.167 25.569 14.198 25.735 14.198C26.012 14.198 26.235 14.136 26.405 14.006C26.579 13.876 26.69 13.689 26.745 13.439H27.548C27.5273 13.6501 27.4651 13.855 27.365 14.042C27.2686 14.2192 27.1397 14.3766 26.985 14.506C26.8216 14.6399 26.6333 14.7402 26.431 14.801C26.2064 14.8743 25.9713 14.9105 25.735 14.908C25.435 14.908 25.163 14.859 24.917 14.761C24.6796 14.6657 24.4662 14.5192 24.292 14.332C24.112 14.1362 23.9751 13.9049 23.89 13.653C23.7917 13.3626 23.7433 13.0576 23.747 12.751C23.7383 12.4464 23.7837 12.1427 23.881 11.854ZM12.456 10.639H13.26V11.353H13.274C13.323 11.233 13.385 11.126 13.466 11.036C13.546 10.942 13.636 10.862 13.738 10.795C13.9569 10.6561 14.2118 10.5848 14.471 10.59C14.766 10.59 15.016 10.661 15.217 10.8C15.422 10.942 15.565 11.143 15.65 11.407H15.672C15.726 11.282 15.797 11.166 15.887 11.067C16.0654 10.8613 16.3023 10.7148 16.566 10.647C16.8924 10.5591 17.2378 10.573 17.556 10.687C17.7196 10.7481 17.8679 10.8442 17.9905 10.9686C18.1132 11.0929 18.2072 11.2425 18.266 11.407C18.33 11.577 18.366 11.769 18.366 11.979V14.85H17.526V12.184C17.526 11.907 17.454 11.693 17.311 11.541C17.168 11.389 16.967 11.313 16.704 11.313C16.5818 11.312 16.4605 11.3347 16.347 11.38C16.2414 11.4223 16.1467 11.4879 16.07 11.572C15.9903 11.6574 15.9281 11.7576 15.887 11.867C15.8409 11.9866 15.8181 12.1139 15.82 12.242V14.859H14.998V12.117C15.0002 12.0043 14.9805 11.8922 14.94 11.787C14.9058 11.6912 14.8507 11.6042 14.7788 11.5322C14.7068 11.4603 14.6198 11.4052 14.524 11.371C14.2982 11.2898 14.0504 11.2948 13.828 11.385C13.7207 11.4306 13.6245 11.4988 13.546 11.585C13.464 11.6721 13.4016 11.7758 13.363 11.889C13.323 12.005 13.251 12.13 13.251 12.269V14.855H12.456V10.639ZM14.283 30.822C10.594 30.822 8.285 28.258 8.285 24.172C8.285 20.085 10.594 17.512 14.283 17.512C17.973 17.512 20.273 20.085 20.273 24.172C20.273 28.258 17.968 30.822 14.283 30.822ZM21.108 14.846C20.7804 14.9265 20.4369 14.9141 20.116 14.81C19.9499 14.7571 19.7964 14.6706 19.665 14.556C19.5355 14.4436 19.4324 14.3041 19.3629 14.1473C19.2934 13.9905 19.2593 13.8204 19.263 13.649C19.263 13.279 19.402 12.988 19.678 12.782C19.955 12.572 20.353 12.452 20.875 12.421L22.015 12.354V12.028C22.015 11.787 21.938 11.598 21.782 11.474C21.626 11.349 21.412 11.282 21.126 11.282C21.0187 11.2812 20.9118 11.2946 20.808 11.322C20.716 11.3483 20.6286 11.3888 20.549 11.442C20.3989 11.5446 20.2948 11.7018 20.259 11.88H19.469C19.473 11.693 19.518 11.523 19.607 11.362C19.697 11.202 19.812 11.067 19.96 10.952C20.1186 10.8313 20.2969 10.739 20.487 10.679C20.7008 10.6134 20.9233 10.5804 21.147 10.581C21.402 10.581 21.635 10.611 21.845 10.679C22.0396 10.7365 22.2215 10.8305 22.381 10.956C22.528 11.076 22.64 11.219 22.72 11.389C22.8 11.559 22.84 11.751 22.84 11.956V14.85H22.037V14.15H22.014C21.9556 14.264 21.8789 14.3678 21.787 14.457C21.693 14.551 21.59 14.627 21.478 14.694C21.3631 14.7632 21.2383 14.8145 21.108 14.846ZM26.414 30.822C23.6 30.822 21.688 29.348 21.559 27.034H23.389C23.533 28.356 24.81 29.232 26.561 29.232C28.241 29.232 29.446 28.356 29.446 27.159C29.446 26.123 28.714 25.498 27.016 25.069L25.364 24.659C22.988 24.069 21.907 22.988 21.907 21.21C21.907 19.022 23.819 17.503 26.539 17.503C29.201 17.503 31.054 19.031 31.126 21.228H29.312C29.187 19.906 28.106 19.093 26.498 19.093C24.9 19.093 23.792 19.915 23.792 21.103C23.792 22.041 24.489 22.595 26.186 23.023L27.579 23.372C30.232 24.015 31.322 25.06 31.322 26.936C31.322 29.33 29.432 30.822 26.414 30.822ZM14.284 19.152C11.755 19.152 10.179 21.09 10.179 24.167C10.179 27.24 11.759 29.174 14.283 29.174C16.803 29.174 18.388 27.235 18.388 24.167C18.388 21.09 16.798 19.151 14.283 19.151L14.284 19.152Z" fill="white"/>
</g>
<defs>
<clipPath id="clip0_62_11">
<rect width="40" height="40" fill="white"/>
</clipPath>
</defs>
</svg>
